<?xml version="1.0" encoding="UTF-8"?>
<svg width="256" height="256" viewBox="0 0 256 256" xmlns="http://www.w3.org/2000/svg" role="img" aria-labelledby="title desc">
  <title id="title">Paker Package Manager Logo with Honeycomb Motif</title>
  <desc id="desc">A geometric box logo with an orange lid, gray base, a negative-space P, and honeycomb hexagons symbolizing modular packages.</desc>
  <defs>
    <style>
      .base { fill: #6B7280; }      /* 灰：稳定、可靠 */
      .muted { fill: #9CA3AF; }     /* 浅灰：层次 */
      .accent { fill: #FF8A00; }    /* 橙：活力、发现 */
      .stroke { stroke: #2F3136; stroke-opacity: .12; stroke-width: 1; }
      .shadow { filter: drop-shadow(0 2px 6px rgba(0,0,0,.18)); }
    </style>
    <!-- 六边形路径定义 -->
    <symbol id="hex" viewBox="0 0 100 100">
      <polygon points="50,0 93,25 93,75 50,100 7,75 7,25"/>
    </symbol>
  </defs>

  <!-- 背景圆角容器 -->
  <rect x="16" y="16" width="224" height="224" rx="36" ry="36" fill="#F3F4F6"/>

  <!-- 盒体 -->
  <g class="shadow">
    <path class="base" d="M64 84h128a12 12 0 0 1 12 12v84a24 24 0 0 1-24 24H88a24 24 0 0 1-24-24V96a12 12 0 0 1 12-12z" />
    <path class="accent" d="M48 76h160c4.4 0 8 3.6 8 8v16H40V84c0-4.4 3.6-8 8-8z"/>

    <!-- 负形 "P" -->
    <path d="M96 96h28c24 0 44 14 44 36s-20 36-44 36h-12v24H96zM124 120h-12v24h12c12 0 20-6 20-12s-8-12-20-12z"
          fill="#FFFFFF"/>

    <!-- 盒口高光 -->
    <rect x="40" y="100" width="176" height="6" class="muted" opacity=".55"/>
  </g>

  <!-- 蜂窝元素：右上角点缀 -->
  <use href="#hex" x="190" y="36" width="32" height="32" class="accent" opacity=".85"/>
  <use href="#hex" x="210" y="60" width="28" height="28" class="muted" opacity=".55"/>
  <use href="#hex" x="174" y="64" width="24" height="24" class="base" opacity=".6"/>

  <!-- 蜂窝元素：左下角点缀 -->
  <use href="#hex" x="36" y="190" width="28" height="28" class="muted" opacity=".55"/>
  <use href="#hex" x="56" y="212" width="24" height="24" class="accent" opacity=".85"/>

  <!-- 外边框弱描边 -->
  <rect x="16" y="16" width="224" height="224" rx="36" ry="36" fill="none" class="stroke"/>
</svg>
